<?xml version="1.0" encoding="UTF-8"?>
<!DOCTYPE svg PUBLIC "-//W3C//DTD SVG 1.1//EN" "http://www.w3.org/Graphics/SVG/1.1/DTD/svg11.dtd">
<!-- Creator: CorelDRAW 2020 (64-Bit) -->
<svg xmlns="http://www.w3.org/2000/svg" xml:space="preserve" width="48.9058mm" height="48.9056mm" version="1.1" style="shape-rendering:geometricPrecision; text-rendering:geometricPrecision; image-rendering:optimizeQuality; fill-rule:evenodd; clip-rule:evenodd"
viewBox="0 0 593.06 593.06"
 xmlns:xlink="http://www.w3.org/1999/xlink"
 xmlns:xodm="http://www.corel.com/coreldraw/odm/2003">
 <defs>
  <style type="text/css">
   <![CDATA[
    .fil1 {fill:#DB6A8F}
    .fil2 {fill:white}
    .fil0 {fill:#CFD0D3;fill-rule:nonzero}
   ]]>
  </style>
 </defs>
 <g id="Capa_x0020_1">
  <metadata id="CorelCorpID_0Corel-Layer"/>
  <path class="fil0" d="M593.06 296.53c0,163.77 -132.76,296.52 -296.53,296.52 -163.77,0 -296.53,-132.76 -296.53,-296.52 0,-163.77 132.76,-296.53 296.53,-296.53 163.77,0 296.53,132.76 296.53,296.53z"/>
  <path class="fil1" d="M593.06 296.53c0,163.77 -132.76,296.52 -296.53,296.52 -163.77,0 -296.53,-132.76 -296.53,-296.52 0,-163.77 132.76,-296.53 296.53,-296.53 163.77,0 296.53,132.76 296.53,296.53z"/>
  <path class="fil2" d="M409.89 161.06c-13.19,0 -23.89,10.69 -23.89,23.89 0,13.18 10.69,23.88 23.89,23.88 13.19,0 23.88,-10.7 23.88,-23.88 0,-13.2 -10.69,-23.89 -23.88,-23.89zm-113.36 49.09c-47.64,0 -86.38,38.75 -86.38,86.38 0,47.63 38.75,86.38 86.38,86.38 47.63,0 86.38,-38.75 86.38,-86.38 0,-47.64 -38.75,-86.38 -86.38,-86.38zm0 201.5c-63.48,0 -115.12,-51.64 -115.12,-115.12 0,-63.48 51.64,-115.12 115.12,-115.12 63.48,0 115.12,51.64 115.12,115.12 0,63.47 -51.64,115.12 -115.12,115.12zm-80.34 -286.5c-55.46,0 -100.59,45.12 -100.59,100.59l0 141.59c0,55.46 45.12,100.58 100.59,100.58l160.67 0c55.46,0 100.58,-45.12 100.58,-100.58l0 -141.59c0,-55.46 -45.12,-100.59 -100.58,-100.59l-160.67 0zm160.67 371.51l-160.67 0c-71.31,0 -129.33,-58.02 -129.33,-129.33l0 -141.59c0,-71.31 58.02,-129.33 129.33,-129.33l160.67 0c71.31,0 129.32,58.02 129.32,129.33l0 141.59c0,71.31 -58.02,129.33 -129.32,129.33z"/>
 </g>
</svg>
