<?xml version="1.0" encoding="UTF-8"?>
<!DOCTYPE svg PUBLIC "-//W3C//DTD SVG 1.1//EN" "http://www.w3.org/Graphics/SVG/1.1/DTD/svg11.dtd">
<!-- Creator: CorelDRAW 2020 (64-Bit) -->
<svg xmlns="http://www.w3.org/2000/svg" xml:space="preserve" width="48.906mm" height="48.9056mm" version="1.1" style="shape-rendering:geometricPrecision; text-rendering:geometricPrecision; image-rendering:optimizeQuality; fill-rule:evenodd; clip-rule:evenodd"
viewBox="0 0 843.36 843.35"
 xmlns:xlink="http://www.w3.org/1999/xlink"
 xmlns:xodm="http://www.corel.com/coreldraw/odm/2003">
 <defs>
  <style type="text/css">
   <![CDATA[
    .fil0 {fill:#DB6A8F}
    .fil1 {fill:white}
   ]]>
  </style>
 </defs>
 <g id="Capa_x0020_1">
  <metadata id="CorelCorpID_0Corel-Layer"/>
  <path class="fil0" d="M843.36 421.68c0,-232.89 -188.8,-421.68 -421.68,-421.68 -232.89,0 -421.68,188.79 -421.68,421.68 0,232.88 188.79,421.67 421.68,421.67 1.2,0 2.4,-0.08 3.61,-0.08l0 -294.18 -101.53 0 0 -117.59 101.53 0 0 -86.7c0,-100.63 61.45,-155.42 151.2,-155.42 43.01,0 79.96,3.21 90.73,4.63l0 105.16 -62.26 0.02c-48.81,0 -58.26,23.2 -58.26,57.23l0 75.07 116.43 0 -15.16 117.59 -101.27 0 0 275.41c171.84,-53.28 296.65,-213.47 296.65,-402.82z"/>
  <path class="fil1" d="M647.97 549.09l15.16 -117.59 -116.43 0 0 -75.07c0,-34.04 9.45,-57.23 58.26,-57.23l62.26 -0.02 0 -105.16c-10.77,-1.42 -47.72,-4.63 -90.73,-4.63 -89.75,0 -151.2,54.79 -151.2,155.42l0 86.7 -101.53 0 0 117.59 101.53 0 0 294.18c42.24,-0.37 83.01,-6.86 121.41,-18.77l0 -275.41 101.27 0z"/>
 </g>
</svg>
