<?xml version="1.0" encoding="UTF-8"?>
<!DOCTYPE svg PUBLIC "-//W3C//DTD SVG 1.1//EN" "http://www.w3.org/Graphics/SVG/1.1/DTD/svg11.dtd">
<!-- Creator: CorelDRAW 2020 (64-Bit) -->
<svg xmlns="http://www.w3.org/2000/svg" xml:space="preserve" width="48.9059mm" height="48.906mm" version="1.1" style="shape-rendering:geometricPrecision; text-rendering:geometricPrecision; image-rendering:optimizeQuality; fill-rule:evenodd; clip-rule:evenodd"
viewBox="0 0 1372.52 1372.52"
 xmlns:xlink="http://www.w3.org/1999/xlink"
 xmlns:xodm="http://www.corel.com/coreldraw/odm/2003">
 <defs>
  <style type="text/css">
   <![CDATA[
    .fil0 {fill:#DB6A8F}
    .fil1 {fill:white}
   ]]>
  </style>
 </defs>
 <g id="Capa_x0020_1">
  <metadata id="CorelCorpID_0Corel-Layer"/>
  <path class="fil0" d="M1372.52 686.27c0,379 -307.26,686.25 -686.26,686.25 -379,0 -686.25,-307.24 -686.25,-686.25 0,-379.03 307.25,-686.27 686.25,-686.27 379,0 686.26,307.24 686.26,686.27z"/>
  <path class="fil1" d="M455.78 621.95c13.09,57.62 68.54,120.95 130.99,183.42 62.44,62.44 179.63,102.49 228.85,102.49 49.23,0 81.95,-34.53 93.16,-45.74 11.21,-11.19 16.68,-44.32 16.68,-57.85 0,-13.54 -8.97,-16.81 -8.97,-16.81 0,0 -76.64,-38.22 -94.32,-46.28 -17.71,-8.08 -28.36,5.66 -28.36,5.66 0,0 -33.22,41.49 -39.3,47.6 -6.13,6.11 -15.74,4.81 -15.74,4.81 0,0 -67.19,-24.98 -102.17,-60 -35.05,-35 -51.98,-62.3 -62.9,-77.14 -10.92,-14.86 0,-28.83 0,-28.83 0,0 19.66,-19.64 28.39,-33.17 8.72,-13.56 3.03,-27.52 3.03,-27.52 0,0 -33.17,-81.24 -40.6,-95.21 -7.42,-13.97 -34.95,-13.97 -56.35,-11.34 -21.37,2.6 -47.61,48.46 -47.61,48.46 -16.13,23.74 -17.88,49.78 -4.78,107.45zm15.53 378.25l13.47 8.44c60.71,38.06 130.39,58.17 201.47,58.17 209.86,0 380.57,-170.7 380.57,-380.55 0,-209.84 -170.7,-380.55 -380.57,-380.55 -209.83,0 -380.53,170.7 -380.53,380.55 0,85.37 27.96,166.27 80.83,233.92l9.35 11.95 -19.56 100.78 94.98 -32.71zm214.94 133.13c-78.24,0 -155,-20.71 -222.97,-60.03l-174.19 60.03 35.79 -184.46c-56.1,-76.91 -85.7,-167.37 -85.7,-262.61 0,-246.52 200.55,-447.07 447.06,-447.07 246.52,0 447.08,200.55 447.08,447.07 0,246.51 -200.55,447.07 -447.08,447.07z"/>
 </g>
</svg>
